<?xml version="1.0" encoding="UTF-8" standalone="no"?>
<!-- Created with Inkscape (http://www.inkscape.org/) -->

<svg
   xmlns:dc="http://purl.org/dc/elements/1.1/"
   xmlns:cc="http://creativecommons.org/ns#"
   xmlns:rdf="http://www.w3.org/1999/02/22-rdf-syntax-ns#"
   xmlns:svg="http://www.w3.org/2000/svg"
   xmlns="http://www.w3.org/2000/svg"
   xmlns:xlink="http://www.w3.org/1999/xlink"
   xmlns:sodipodi="http://sodipodi.sourceforge.net/DTD/sodipodi-0.dtd"
   xmlns:inkscape="http://www.inkscape.org/namespaces/inkscape"
   width="176mm"
   height="250mm"
   viewBox="0 0 623.62205 885.82677"
   id="svg2"
   version="1.1"
   inkscape:version="0.91 r13725"
   sodipodi:docname="cover.svg">
  <defs
     id="defs4" />
  <sodipodi:namedview
     id="base"
     pagecolor="#ffffff"
     bordercolor="#666666"
     borderopacity="1.0"
     inkscape:pageopacity="0.0"
     inkscape:pageshadow="2"
     inkscape:zoom="0.7"
     inkscape:cx="360.4107"
     inkscape:cy="513.40691"
     inkscape:document-units="px"
     inkscape:current-layer="layer1"
     showgrid="false"
     inkscape:window-width="1366"
     inkscape:window-height="705"
     inkscape:window-x="-8"
     inkscape:window-y="-8"
     inkscape:window-maximized="1" />
  <metadata
     id="metadata7">
    <rdf:RDF>
      <cc:Work
         rdf:about="">
        <dc:format>image/svg+xml</dc:format>
        <dc:type
           rdf:resource="http://purl.org/dc/dcmitype/StillImage" />
        <dc:title></dc:title>
      </cc:Work>
    </rdf:RDF>
  </metadata>
  <g
     inkscape:label="Layer 1"
     inkscape:groupmode="layer"
     id="layer1"
     transform="translate(0,-166.53543)">
    <g
       id="g4188"
       transform="matrix(0.63837076,0,0,0.63837076,43.236452,224.96134)">
      <g
         transform="matrix(-0.59066043,-0.80692023,0.80692023,-0.59066043,209.28975,1261.9264)"
         id="g4182">
        <circle
           style="fill:none;fill-opacity:1;stroke:#000000;stroke-width:1;stroke-miterlimit:4;stroke-dasharray:none;stroke-opacity:1"
           id="path4140"
           cx="425"
           cy="577.36224"
           r="139.28572" />
        <text
           xml:space="preserve"
           style="font-style:normal;font-weight:normal;font-size:40px;line-height:125%;font-family:sans-serif;letter-spacing:0px;word-spacing:0px;fill:#000000;fill-opacity:1;stroke:none;stroke-width:1px;stroke-linecap:butt;stroke-linejoin:miter;stroke-opacity:1"
           id="text4156"
           sodipodi:linespacing="125%"><textPath
             xlink:href="#path4140"
             id="textPath4179"><tspan
   style="font-style:normal;font-variant:normal;font-weight:normal;font-stretch:normal;line-height:125%;font-family:serif;-inkscape-font-specification:serif"
   id="tspan4158"
   dx="0">SCIENTIA</tspan></textPath></text>
      </g>
      <circle
         r="187.14285"
         cy="576.64795"
         cx="425.71429"
         id="path4136"
         style="fill:none;fill-opacity:1;stroke:#000000;stroke-width:1;stroke-miterlimit:4;stroke-dasharray:none;stroke-opacity:1" />
      <path
         inkscape:connector-curvature="0"
         id="path4144"
         d="m 382.85714,445.21935 c -1.42857,1.90476 -2.85714,3.80952 -4.28571,5.71428 0,0.47619 0.15058,0.97682 0,1.42857 -0.33672,1.01016 -1.09186,1.84699 -1.42857,2.85715 -0.15059,0.45175 0.21296,1.00265 0,1.42857 -0.30117,0.60234 -1.2965,0.76821 -1.42857,1.42857 -0.37356,1.86777 0.31314,3.83544 0,5.71429 -0.35011,2.10061 -2.34065,3.64828 -2.85715,5.71428 -0.23098,0.92395 0,1.90476 0,2.85714 0,0.47619 0.21296,1.00266 0,1.42858 -2.97268,5.94537 0.0986,-1.5272 -2.85714,1.42857 -0.33672,0.33671 0.33672,1.09185 0,1.42857 -0.33672,0.33672 -1.00265,-0.21296 -1.42857,0 -5.94537,2.97268 1.52719,-0.0986 -1.42857,2.85714 -0.33672,0.33672 -0.95238,0 -1.42857,0 -0.47619,1.42857 -1.06335,2.82483 -1.42858,4.28572 -0.4467,1.7868 0.583,3.96528 0,5.71428 -0.21295,0.63888 -1.1274,0.82623 -1.42857,1.42857 -0.21296,0.42592 0,0.95238 0,1.42857 0,0.47619 -0.33671,1.09186 0,1.42858 0.33672,0.33671 1.09186,-0.33672 1.42857,0 0.33672,0.33671 -0.21295,1.00265 0,1.42857 0.60234,1.20467 2.25481,1.65246 2.85715,2.85714 0.21296,0.42592 -0.15059,0.97682 0,1.42857 0.33671,1.01015 1.09185,1.84699 1.42857,2.85714 0.30117,0.90351 -0.30117,1.95364 0,2.85715 0.33672,1.01015 1.09185,1.84699 1.42857,2.85714 0.14141,0.42424 0.14661,6.84965 0,7.14286 -0.30117,0.60234 -1.1274,0.82623 -1.42857,1.42857 -0.21296,0.42592 0,0.95238 0,1.42857 0,0.95238 0.42592,2.00531 0,2.85714 -0.21296,0.42592 -1.09186,-0.33671 -1.42857,0 -0.33672,0.33672 0.21296,1.00266 0,1.42857 -0.30117,0.60234 -1.21562,0.7897 -1.42857,1.42858 -0.30117,0.9035 0,1.90476 0,2.85714 0,0.79818 -0.28102,6.29982 0,7.14286 0.47619,0.95238 0.95238,1.90476 1.42857,2.85714 0,0.47619 -0.15059,0.97682 0,1.42857 0.33671,1.01015 1.09185,1.84699 1.42857,2.85714 0.32754,0.98262 -0.42144,3.44283 0,4.28572 0.30117,0.60234 1.1274,0.82623 1.42857,1.42857 0.42592,0.85183 -0.42592,2.00531 0,2.85714 0.30117,0.60234 1.1274,0.82623 1.42857,1.42857 0.42592,0.85184 -0.30117,1.95364 0,2.85715 0.33672,1.01015 1.09186,1.84699 1.42857,2.85714 0.30117,0.90351 -0.42591,2.00531 0,2.85714 0.30117,0.60234 1.12741,0.82623 1.42857,1.42857 0.21296,0.42592 0,0.95238 0,1.42857 0.47619,0.47619 1.12741,0.82624 1.42858,1.42858 0.21295,0.42591 -0.21296,1.00265 0,1.42857 0.30117,0.60234 1.1274,0.82623 1.42857,1.42857 0.21296,0.42592 -0.33672,1.09185 0,1.42857 0.33671,0.33672 1.09185,-0.33672 1.42857,0 0.33672,0.33672 -0.21296,1.00265 0,1.42857 0.30117,0.60234 1.1274,0.82623 1.42857,1.42857 0.21296,0.42592 -0.33672,1.09186 0,1.42857 0.33672,0.33672 1.00265,-0.21295 1.42857,0 0.60234,0.30117 0.82623,1.12741 1.42857,1.42858 0.42592,0.21295 0.95238,0 1.42857,0 0.47619,0.47619 0.82624,1.1274 1.42858,1.42857 0.85183,0.42592 2.0053,-0.42592 2.85714,0 0.60234,0.30117 0.82623,1.1274 1.42857,1.42857 1.14286,0.57143 3.14286,-0.57143 4.28571,0 0.60234,0.30117 0.82624,1.1274 1.42858,1.42857 0.42591,0.21296 0.97681,-0.15058 1.42857,0 1.01015,0.33672 1.84699,1.09185 2.85714,1.42857 0.89665,0.29888 4.56424,0 5.71429,0 4.7619,0 9.52381,0 14.28571,0 0.64337,0 3.85095,0.21738 4.28571,0 0.60234,-0.30117 0.82624,-1.1274 1.42858,-1.42857 0.42591,-0.21296 0.95238,0 1.42857,0 1.47788,0 1.9745,-0.33672 2.85714,1.42857 0.21296,0.42592 -0.21296,1.00266 0,1.42857 0.30117,0.60234 1.1274,0.82624 1.42857,1.42857 0.21296,0.42592 -0.21296,1.00266 0,1.42858 0.30117,0.60233 1.1274,0.82623 1.42857,1.42857 0.21296,0.42592 0,0.95238 0,1.42857 0,0.47619 0.21296,1.00265 0,1.42857 -0.30117,0.60234 -1.1274,0.82623 -1.42857,1.42857 -0.21296,0.42592 0.42592,1.21561 0,1.42857 -0.85183,0.42592 -2.18371,-0.67343 -2.85714,0 -0.67344,0.67344 0.67343,2.18371 0,2.85715 -0.67344,0.67343 -2.00531,-0.42592 -2.85714,0 -0.42592,0.21295 0.21295,1.00265 0,1.42857 -0.60234,1.20467 -2.25481,1.65246 -2.85715,2.85714 -0.21296,0.42592 0.21296,1.00265 0,1.42857 -0.30117,0.60234 -1.05501,0.86824 -1.42857,1.42857 -0.59064,0.88597 -0.83793,1.97118 -1.42857,2.85715 -0.37355,0.56033 -1.1274,0.82623 -1.42857,1.42857 -0.21296,0.42592 0.15058,0.97681 0,1.42857 -0.67344,2.0203 -2.18371,3.69398 -2.85714,5.71428 -0.15059,0.45176 0.15058,0.97682 0,1.42858 -0.348,1.04398 -1.54954,3.63191 -2.85715,4.28571 -0.89789,0.44894 -4.81639,-0.44894 -5.71428,0 -0.60234,0.30117 -0.82624,1.1274 -1.42857,1.42857 -0.37563,0.18782 -4.96726,0 -5.71429,0 -2.38095,0 -4.7619,0 -7.14286,0 -0.95238,0 -1.93319,0.23099 -2.85714,0 -1.033,-0.25825 -1.82414,-1.17032 -2.85714,-1.42857 -0.92395,-0.23099 -1.95364,0.30117 -2.85715,0 -0.63887,-0.21296 -0.82623,-1.1274 -1.42857,-1.42857 -0.85183,-0.42592 -1.95363,0.30117 -2.85714,0 -1.01015,-0.33672 -1.82414,-1.17032 -2.85714,-1.42857 -0.92395,-0.23099 -1.95364,0.30117 -2.85715,0 -1.27775,-0.42592 -1.65246,-2.25481 -2.85714,-2.85715 -0.85183,-0.42591 -2.00531,0.42592 -2.85714,0 -1.20468,-0.60233 -1.65247,-2.2548 -2.85714,-2.85714 -1.14286,-0.57143 -3.14286,0.57143 -4.28572,0 -0.42592,-0.21296 0.21296,-1.00265 0,-1.42857 -0.30117,-0.60234 -0.82623,-1.1274 -1.42857,-1.42857 -0.42592,-0.21296 -1.00265,0.21296 -1.42857,0 -1.71429,-0.85714 -2.57143,-3.42857 -4.28572,-4.28572 -0.85183,-0.42591 -2.0053,0.42592 -2.85714,0 -1.40575,-0.70287 -4.30853,-5.0114 -5.71428,-5.71428 -0.42592,-0.21296 -0.95239,0 -1.42858,0 -0.47619,0 -0.95238,0 -1.42857,0 -2.38095,0 -4.7619,0 -7.14285,0 -0.99363,0 -6.62624,-0.25831 -7.14286,0 -0.60234,0.30117 -1.1274,0.82623 -1.42857,1.42857 -0.18782,0.37563 0,4.96726 0,5.71429 0,0.64336 -0.21738,3.85095 0,4.28571 0.30117,0.60234 1.1274,0.82623 1.42857,1.42857 0.57143,1.14286 -0.57143,3.14286 0,4.28572 0.30117,0.60233 1.1274,0.82623 1.42857,1.42857 0.44894,0.89789 -0.44894,4.81639 0,5.71428 0.30117,0.60234 1.1274,0.82624 1.42857,1.42857 0.42592,0.85184 -0.42592,2.00531 0,2.85715 0.30117,0.60234 1.1274,0.82623 1.42857,1.42857 0.21738,0.43476 0,3.64235 0,4.28571 0,3.33334 0,6.66667 0,10 0,0.64337 -0.21738,3.85095 0,4.28572 0.30117,0.60234 1.12741,0.82623 1.42857,1.42857 0.44895,0.89789 -0.44894,4.8164 0,5.71428 0.30117,0.60234 1.12741,0.82624 1.42858,1.42858 0.21295,0.42591 0,0.95238 0,1.42857 0.47619,0.47619 1.1274,0.82623 1.42857,1.42857 0.0797,0.15945 0.0797,6.98341 0,7.14286 -0.30117,0.60233 -1.1274,0.82623 -1.42857,1.42857 -0.21296,0.42592 0.33671,1.09185 0,1.42857 -0.75293,0.75292 -1.97118,0.83793 -2.85715,1.42857 -0.56033,0.37355 -0.82623,1.1274 -1.42857,1.42857 -0.42592,0.21296 -1.00265,-0.21296 -1.42857,0 -3.53058,1.76529 0.49311,1.42857 -2.85714,1.42857 -0.95238,0 -1.90476,0 -2.85715,0 -0.47619,0 -1.42857,0.47619 -1.42857,0 0,-0.47619 1.09186,0.33672 1.42857,0 0.33672,-0.33671 0,-0.95238 0,-1.42857 0,-0.47619 0,-0.95238 0,-1.42857"
         style="fill:none;fill-rule:evenodd;stroke:#000000;stroke-width:1px;stroke-linecap:butt;stroke-linejoin:miter;stroke-opacity:1" />
      <path
         inkscape:connector-curvature="0"
         id="path4146"
         d="m 425.71429,439.50506 c 2.38095,0 4.7619,0 7.14285,0 0.47619,0 1.00266,-0.21296 1.42857,0 0.60234,0.30117 0.82624,1.1274 1.42858,1.42857 0.75408,0.37704 3.66362,-0.41472 4.28571,0 1.12066,0.74711 1.90476,1.90476 2.85714,2.85715 0.95238,0.95238 1.90476,1.90476 2.85715,2.85714 0.47619,0.47619 0.82623,1.1274 1.42857,1.42857 0.42592,0.21296 1.00265,-0.21296 1.42857,0 0.60234,0.30117 0.95238,0.95238 1.42857,1.42857 0.95238,0.95238 1.73648,2.11004 2.85714,2.85714 3.74005,2.49337 -1.57205,-6.00125 2.85715,2.85715 3.80952,7.61904 -1.42858,-1.42857 4.28571,4.28571 0.33672,0.33672 0,0.95238 0,1.42857 0,0.47619 0,0.95238 0,1.42857 0,0.56474 0.30506,6.53274 0,7.14286 -2.97269,5.94537 0.0986,-1.52719 -2.85714,1.42857 -0.33672,0.33672 0.33671,1.09186 0,1.42857 -0.33672,0.33672 -1.00266,-0.21295 -1.42857,0 -0.60234,0.30117 -0.95238,0.95239 -1.42858,1.42858 -0.47619,0.47619 -0.82623,1.1274 -1.42857,1.42857 -0.85183,0.42591 -2.0053,-0.42592 -2.85714,0 -0.60234,0.30117 -0.82623,1.1274 -1.42857,1.42857 -0.85184,0.42592 -2.00531,-0.42592 -2.85714,0 -0.60234,0.30117 -0.82624,1.1274 -1.42858,1.42857 -0.43476,0.21738 -3.64234,0 -4.28571,0 -3.80952,0 -7.61905,0 -11.42857,0 -1.27675,0 -6.68761,0.22762 -7.14286,0 -0.60234,-0.30117 -0.82623,-1.1274 -1.42857,-1.42857 -0.42592,-0.21296 -0.95238,0 -1.42857,0 -0.47619,0 -0.95238,0 -1.42857,0 -0.95238,0 -1.90476,0 -2.85715,0 -0.95238,0 -1.93319,-0.23099 -2.85714,0 -1.033,0.25825 -1.84699,1.09185 -2.85714,1.42857 -0.45176,0.15058 -1.00265,-0.21296 -1.42857,0 -0.60234,0.30117 -0.82624,1.1274 -1.42857,1.42857 -0.42592,0.21296 -1.00266,-0.21296 -1.42858,0 -0.60233,0.30117 -0.82623,1.1274 -1.42857,1.42857 -0.85183,0.42592 -2.1837,-0.67343 -2.85714,0 -0.33672,0.33672 0,0.95238 0,1.42857 0,0.95239 0.42592,2.00531 0,2.85715 -0.21296,0.42591 -1.00265,-0.21296 -1.42857,0 -0.60234,0.30117 -1.1274,0.82623 -1.42857,1.42857 -0.21083,0.42165 0,8.52827 0,10 0,1.42857 -0.45176,2.93045 0,4.28571 0.42592,1.27776 2.2548,1.65247 2.85714,2.85715 0.98526,1.97051 -1.73008,1.27781 1.42857,2.85714 0.93545,0.46772 5.8751,-0.42259 7.14286,0 2.59461,0.86487 2.65121,1.22264 4.28571,2.85714 0.47619,0.47619 0.82624,1.1274 1.42857,1.42857 0.36936,0.18468 7.55886,0 8.57143,0 2.85715,0 5.71429,0 8.57143,0 0.93873,0 3.47972,0.26867 4.28572,0 1.01015,-0.33671 1.84699,-1.09185 2.85714,-1.42857 1.2238,-0.40793 4.45397,0.31508 5.71428,0 1.03301,-0.25825 1.82415,-1.17032 2.85715,-1.42857 0.92394,-0.23099 1.90476,0 2.85714,0 0.95238,0 1.90476,0 2.85714,0 0.74703,0 5.33866,-0.18782 5.71429,0 0.59107,0.29554 3.88203,3.6802 4.28571,4.28571 0.59064,0.88597 0.83793,1.97118 1.42857,2.85715 0.37356,0.56033 1.12741,0.82623 1.42858,1.42857 0.21295,0.42592 -0.21296,1.00265 0,1.42857 0.30117,0.60234 1.1274,0.82623 1.42857,1.42857 0.21296,0.42592 -0.15059,0.97682 0,1.42857 0.33671,1.01016 1.09185,1.84699 1.42857,2.85715 0.32754,0.98261 -0.42144,3.44282 0,4.28571 0.30117,0.60234 1.1274,0.82623 1.42857,1.42857 0.21738,0.43476 0,3.64235 0,4.28572 0,0.67356 0.0648,7.07811 0,7.14285 -0.33672,0.33672 -1.09185,-0.33671 -1.42857,0 -0.33672,0.33672 0.21296,1.00266 0,1.42857 -0.30117,0.60234 -1.1274,0.82624 -1.42857,1.42858 -0.21296,0.42591 0.21296,1.00265 0,1.42857 -0.30117,0.60234 -0.95238,0.95238 -1.42857,1.42857 -0.95238,0.95238 -1.77965,2.04902 -2.85715,2.85714 -0.85183,0.63888 -1.97118,0.83793 -2.85714,1.42857 -0.56033,0.37356 -0.82623,1.12741 -1.42857,1.42857 -0.77498,0.3875 -5.3234,-0.39088 -5.71429,0 -0.33671,0.33672 0.33672,1.09186 0,1.42858 -0.001,10e-4 -4.27924,-0.002 -4.28571,0 -0.63888,0.21295 -0.82623,1.1274 -1.42857,1.42857 -0.51662,0.25831 -6.14923,0 -7.14286,0 -0.47619,0 -1.09185,-0.33672 -1.42857,0 -0.33672,0.33671 0.33672,1.09185 0,1.42857 -0.33672,0.33672 -1.00265,-0.21296 -1.42857,0 -0.60234,0.30117 -0.82624,1.1274 -1.42857,1.42857 -0.85184,0.42592 -2.00531,-0.42592 -2.85715,0 -0.60234,0.30117 -0.86824,1.05502 -1.42857,1.42857 -0.88596,0.59064 -2.10422,0.67565 -2.85714,1.42857 -0.12166,0.12166 -0.23636,3.57663 0,4.28572 0.33672,1.01015 1.09185,1.84699 1.42857,2.85714 0.30117,0.90351 -0.42592,2.00531 0,2.85714 3.26901,6.53801 -0.5921,-6.06202 2.85714,4.28572 0.15059,0.45175 -0.21296,1.00265 0,1.42857 0.60234,1.20468 2.25481,1.65246 2.85715,2.85714 0.21295,0.42592 -0.33672,1.09186 0,1.42857 2.102,0 1.09185,-0.33671 2.85714,1.42857 2.92924,2.92924 1.77882,0.59295 4.28571,1.42858 10.34774,3.44924 -2.25229,-0.41187 4.28572,2.85714 0.85183,0.42592 2.0053,-0.42592 2.85714,0 1.20468,0.60234 1.65247,2.2548 2.85714,2.85714 1.14286,0.57143 3.14286,-0.57143 4.28572,0 0.60234,0.30117 0.82623,1.1274 1.42857,1.42857 0.37563,0.18782 4.96726,0 5.71428,0 1.42858,0 2.85715,0 4.28572,0 0.47619,0 1.90476,0 1.42857,0 -0.95238,0 -3.80952,0 -2.85714,0 1.42857,0 2.85714,0 4.28571,0 0.47619,0 0.95238,0 1.42857,0 0.47619,0 1.00266,-0.21296 1.42857,0 0.60234,0.30117 0.7897,1.21562 1.42858,1.42857 0.9035,0.30117 1.95363,-0.30116 2.85714,0 0.63888,0.21296 1.90476,0.95239 1.42857,1.42858 -1.34921,1.3492 -3.96825,-9.36508 1.42857,1.42857 0.85184,1.70367 -0.46197,3.86639 0,5.71428 0.25825,1.03301 1.09186,1.84699 1.42857,2.85715 0.26867,0.80599 0,3.34699 0,4.28571 0,2.85714 0,5.71429 0,8.57143 0,10 0,20 0,30 0,2.85714 0,5.71428 0,8.57143 0,0.47619 0,0.95238 0,1.42857 0,0.47619 -0.21296,1.00265 0,1.42857 0.30117,0.60234 1.12741,0.82623 1.42857,1.42857 0.21296,0.42592 -0.33671,1.09186 0,1.42857 0.67344,0.67344 2.00531,-0.42591 2.85715,0 1.17517,0.58759 4.65773,5.00992 5.71428,5.71429 0.011,0.007 5.61953,0.0474 5.71429,0 0.60234,-0.30117 0.82623,-1.1274 1.42857,-1.42857 0.42592,-0.21296 1.09185,0.33671 1.42857,0 0.75292,-0.75293 0.83793,-1.97118 1.42857,-2.85715 0.74711,-1.12066 2.43123,-1.57939 2.85715,-2.85714 0.30117,-0.90351 -0.52829,-2.06471 0,-2.85714 0.59064,-0.88596 2.10422,-0.67565 2.85714,-1.42857 0.33672,-0.33672 -0.21296,-1.00266 0,-1.42857 0.30117,-0.60234 0.95238,-0.95239 1.42857,-1.42858 0,-0.95238 -0.30117,-1.95363 0,-2.85714 0.21296,-0.63887 1.1274,-0.82623 1.42857,-1.42857 0.21296,-0.42592 0,-0.95238 0,-1.42857 0.47619,-0.95238 0.83793,-1.97118 1.42857,-2.85714 0.37356,-0.56034 1.12741,-0.82624 1.42857,-1.42858 0.21296,-0.42591 -0.21295,-1.00265 0,-1.42857 0.60234,-1.20467 2.25481,-1.65246 2.85715,-2.85714 0.21296,-0.42592 -0.21296,-1.00265 0,-1.42857 0.30117,-0.60234 1.1274,-0.82623 1.42857,-1.42857 0.21296,-0.42592 -0.21296,-1.00266 0,-1.42857 0.30117,-0.60234 1.1274,-0.82624 1.42857,-1.42858 0.21296,-0.42591 0,-0.95238 0,-1.42857 0,-0.47619 0,-0.95238 0,-1.42857 0,-2.38095 0,-4.7619 0,-7.14286 0,-3.33333 0,-6.66666 0,-10 0,-0.93872 0.26867,-3.47971 0,-4.28571 -0.33672,-1.01015 -1.17032,-1.82414 -1.42857,-2.85714 -0.23099,-0.92395 0,-1.90476 0,-2.85715 0,-2.85714 0,-5.71428 0,-8.57142 0,-0.64337 -0.21738,-3.85096 0,-4.28572 4.73797,-4.73797 -0.67344,1.34687 1.42857,-2.85714 0.85714,-1.71429 3.42857,-2.57143 4.28571,-4.28572 0.21296,-0.42591 -0.21295,-1.00265 0,-1.42857 0.60234,-1.20467 2.25481,-1.65246 2.85715,-2.85714 0.21296,-0.42592 -0.21296,-1.00265 0,-1.42857 0.30117,-0.60234 0.95238,-0.95238 1.42857,-1.42857 0.47619,-0.47619 0.82623,-1.1274 1.42857,-1.42857 0.42592,-0.21296 1.00265,0.21295 1.42857,0 0.60234,-0.30117 0.82623,-1.12741 1.42857,-1.42858 0.42592,-0.21295 0.95238,0 1.42857,0 0.95239,0 1.90477,0 2.85715,0 1.28766,0 6.24371,-0.29971 7.14285,0 1.01016,0.33672 1.84699,1.09186 2.85715,1.42858 0.98262,0.32754 3.44283,-0.42145 4.28571,0 0.60234,0.30117 0.82623,1.1274 1.42857,1.42857 0.85184,0.42592 2.00531,-0.42592 2.85715,0 0.60233,0.30117 0.82623,1.1274 1.42857,1.42857 0.42592,0.21296 1.42857,-0.47619 1.42857,0 0,0.47619 -1.90476,0 -1.42857,0 3.92193,0 2.0053,-0.42592 5.71428,1.42857"
         style="fill:none;fill-rule:evenodd;stroke:#000000;stroke-width:1px;stroke-linecap:butt;stroke-linejoin:miter;stroke-opacity:1" />
      <path
         sodipodi:nodetypes="czzc"
         inkscape:connector-curvature="0"
         id="path4152"
         d="m 284.28571,573.79077 c -20.41598,-0.41598 -42.39497,17.98839 -4.99999,34.28572 37.39497,16.29733 261.20823,18.59106 293.57142,-2.85715 32.3632,-21.44821 10.80116,-34.64285 -8.21429,-34.99999"
         style="fill:none;fill-rule:evenodd;stroke:#000000;stroke-width:1px;stroke-linecap:butt;stroke-linejoin:miter;stroke-opacity:1" />
    </g>
    <text
       xml:space="preserve"
       style="font-style:normal;font-weight:normal;font-size:40px;line-height:125%;font-family:sans-serif;letter-spacing:0px;word-spacing:0px;fill:#000000;fill-opacity:1;stroke:none;stroke-width:1px;stroke-linecap:butt;stroke-linejoin:miter;stroke-opacity:1"
       x="184.28571"
       y="379.50507"
       id="text4199"
       sodipodi:linespacing="125%"><tspan
         sodipodi:role="line"
         id="tspan4201"
         x="184.28571"
         y="379.50507"
         style="font-size:50px">탄도학 기초</tspan></text>
    <text
       xml:space="preserve"
       style="font-style:normal;font-weight:normal;font-size:30px;line-height:125%;font-family:sans-serif;letter-spacing:0px;word-spacing:0px;fill:#000000;fill-opacity:1;stroke:none;stroke-width:1px;stroke-linecap:butt;stroke-linejoin:miter;stroke-opacity:1"
       x="118.57143"
       y="820.93365"
       id="text4203"
       sodipodi:linespacing="125%"><tspan
         sodipodi:role="line"
         id="tspan4205"
         x="118.57143"
         y="820.93365" /></text>
    <text
       xml:space="preserve"
       style="font-style:normal;font-weight:normal;font-size:40px;line-height:125%;font-family:sans-serif;letter-spacing:0px;word-spacing:0px;fill:#000000;fill-opacity:1;stroke:none;stroke-width:1px;stroke-linecap:butt;stroke-linejoin:miter;stroke-opacity:1"
       x="191.42857"
       y="858.07648"
       id="text4207"
       sodipodi:linespacing="125%"><tspan
         sodipodi:role="line"
         id="tspan4209"
         x="191.42857"
         y="858.07648"
         style="font-size:22.5px">Kerbal Propulsion Lab</tspan></text>
  </g>
</svg>
